<svg height="440pt" viewBox="-8 0 440 440" width="440pt" xmlns="http://www.w3.org/2000/svg"><path d="m132 436h-96c-17.671875 0-32-14.328125-32-32v-368c0-17.671875 14.328125-32 32-32h96zm0 0" fill="#005b8a"/><path d="m132 440h-96c-19.847656 0-36-16.152344-36-36v-368c0-19.847656 16.152344-36 36-36h96c2.207031 0 4 1.792969 4 4v432c0 2.207031-1.792969 4-4 4zm-96-432c-15.441406 0-28 12.558594-28 28v368c0 15.441406 12.558594 28 28 28h92v-424zm0 0" fill="#212a41"/><path d="m20 408c-2.207031 0-4-1.792969-4-4v-368c0-2.207031 1.792969-4 4-4s4 1.792969 4 4v368c0 2.207031-1.792969 4-4 4zm0 0" fill="#0079a8"/><path d="m132 436h-32c-17.671875 0-32-14.328125-32-32v-368c0-17.671875 14.328125-32 32-32h32zm0 0" fill="#0079a8"/><path d="m132 440h-32c-19.847656 0-36-16.152344-36-36v-368c0-19.847656 16.152344-36 36-36h32c2.207031 0 4 1.792969 4 4v432c0 2.207031-1.792969 4-4 4zm-32-432c-15.441406 0-28 12.558594-28 28v368c0 15.441406 12.558594 28 28 28h28v-424zm0 0" fill="#212a41"/><path d="m388 4h-256v432h256c17.671875 0 32-14.328125 32-32v-368c0-17.671875-14.328125-32-32-32zm0 0" fill="#e0e0e0"/><g fill="#212a41"><path d="m388 440h-256c-2.207031 0-4-1.792969-4-4v-432c0-2.207031 1.792969-4 4-4h256c19.847656 0 36 16.152344 36 36v368c0 19.847656-16.152344 36-36 36zm-252-8h252c15.441406 0 28-12.558594 28-28v-368c0-15.441406-12.558594-28-28-28h-252zm0 0"/><path d="m276 312c-24.671875 0-44-43.929688-44-100s19.328125-100 44-100 44 43.929688 44 100-19.328125 100-44 100zm0-192c-17.382812 0-36 36.96875-36 92s18.617188 92 36 92 36-36.96875 36-92-18.617188-92-36-92zm0 0"/><path d="m218.902344 271.910156c-15.148438 0-26.589844-4.039062-31.832032-12.375-3.246093-5.175781-3.925781-11.414062-2.03125-18.535156 5.472657-20.480469 32.359376-46.113281 68.503907-65.304688 49.808593-26.4375 98.722656-31.367187 111.386719-11.230468 3.246093 5.175781 3.925781 11.414062 2.03125 18.535156-5.472657 20.480469-32.359376 46.113281-68.503907 65.304688-29.199219 15.496093-58.089843 23.605468-79.554687 23.605468zm114.273437-111.949218c-18.960937 0-46.230469 7.0625-75.878906 22.800781-33.753906 17.917969-59.679687 42.148437-64.527344 60.300781-1.304687 4.890625-.9375 9 1.085938 12.21875 8.984375 14.3125 51.648437 12.085938 100.847656-14.042969 33.753906-17.917969 59.679687-42.148437 64.527344-60.300781 1.304687-4.890625.9375-9-1.085938-12.21875-3.570312-5.6875-12.457031-8.757812-24.96875-8.757812zm0 0"/><path d="m333.097656 271.910156c-21.464844 0-50.355468-8.109375-79.546875-23.605468-36.152343-19.183594-63.039062-44.824219-68.503906-65.304688-1.894531-7.121094-1.214844-13.351562 2.03125-18.535156 12.648437-20.136719 61.578125-15.207032 111.386719 11.230468 36.152344 19.183594 63.039062 44.824219 68.503906 65.304688 1.894531 7.121094 1.214844 13.351562-2.03125 18.535156-5.242188 8.328125-16.699219 12.375-31.839844 12.375zm-114.273437-111.949218c-12.503907 0-21.398438 3.070312-24.96875 8.757812-2.023438 3.21875-2.390625 7.328125-1.085938 12.21875 4.847657 18.152344 30.78125 42.382812 64.527344 60.300781 49.207031 26.113281 91.871094 28.355469 100.847656 14.042969 2.023438-3.21875 2.390625-7.328125 1.085938-12.21875-4.847657-18.152344-30.78125-42.382812-64.527344-60.300781-29.648437-15.738281-56.917969-22.800781-75.878906-22.800781zm0 0"/></g><path d="m292 212c0 8.835938-7.164062 16-16 16s-16-7.164062-16-16 7.164062-16 16-16 16 7.164062 16 16zm0 0" fill="#f9ac2f"/><path d="m276 232c-11.03125 0-20-8.976562-20-20s8.96875-20 20-20 20 8.976562 20 20-8.96875 20-20 20zm0-32c-6.617188 0-12 5.382812-12 12s5.382812 12 12 12 12-5.382812 12-12-5.382812-12-12-12zm0 0" fill="#212a41"/><path d="m372 84-24-16-24 16v-80h48zm0 0" fill="#d32e5e"/><path d="m372 88c-.777344 0-1.542969-.222656-2.214844-.671875l-21.785156-14.519531-21.785156 14.519531c-1.230469.816406-2.816406.886719-4.109375.199219-1.289063-.695313-2.105469-2.046875-2.105469-3.527344v-80c0-2.207031 1.792969-4 4-4h48c2.207031 0 4 1.792969 4 4v80c0 1.480469-.816406 2.832031-2.113281 3.527344-.589844.3125-1.238281.472656-1.886719.472656zm-24-24c.777344 0 1.542969.222656 2.214844.671875l17.785156 11.855469v-68.527344h-40v68.527344l17.785156-11.855469c.671875-.449219 1.4375-.671875 2.214844-.671875zm0 0" fill="#212a41"/><path d="m348 380h-144c-4.414062 0-8-3.585938-8-8v-8c0-4.414062 3.585938-8 8-8h144c4.414062 0 8 3.585938 8 8v8c0 4.414062-3.585938 8-8 8zm0 0" fill="#b7c0d7"/><path d="m348 384h-144c-6.617188 0-12-5.382812-12-12v-8c0-6.617188 5.382812-12 12-12h144c6.617188 0 12 5.382812 12 12v8c0 6.617188-5.382812 12-12 12zm-144-24c-2.199219 0-4 1.792969-4 4v8c0 2.207031 1.800781 4 4 4h144c2.199219 0 4-1.792969 4-4v-8c0-2.207031-1.800781-4-4-4zm0 0" fill="#212a41"/><path d="m84 408c-2.207031 0-4-1.792969-4-4v-368c0-2.207031 1.792969-4 4-4s4 1.792969 4 4v368c0 2.207031-1.792969 4-4 4zm0 0" fill="#1e97c6"/><path d="m404 408c-2.207031 0-4-1.792969-4-4v-368c0-2.207031 1.792969-4 4-4s4 1.792969 4 4v368c0 2.207031-1.792969 4-4 4zm0 0" fill="#c2c2c2"/></svg>